:SAMPLES-PER-SECOND 30
:FRAME-RANGE 1-2775
:FULLY-SPECIFIED
:DEGREES
608
root  5.36162 40.4875 28.2643 -177.071 33.6351 171.841
RightUpLeg  -11.2286 -9.34168 -12.2418
RightLeg  9.27146 -12.1621 -2.22909
RightFoot  -0.940809 -0.783828 8.52621
RightToes  1.218e-010 1.26228e-014 -6.01869e-014
Spine  -2.91071 -0.403624 4.9558
Spine1  2.21691 -0.335775 -1.13555
HEad  -12.9611 -26.266 1.2029
LeftShoulder1  1.07542 -0.131127 -25.3704
LeftArm  42.1547 -6.63693 -46.0726
LeftForeArm  18.288 -27.8139 -5.01062
LeftHand  -0.0800777 3.48573 3.91717
RightShoulder  1.21001 0.290491 27.5981
RightArm  -40.9391 -43.8189 33.7036
RightForeArm  58.6551 76.2103 117.502
RightHand  -0.228859 -18.8369 1.03138
LeftUpLeg  -4.74279 -0.469086 0.422035
LeftLeg  10.6628 -21.3324 -3.48481
LeftFoot  -0.384786 1.01669 -10.5558
LeftToes  5.08156e-010 -6.90346e-011 -6.33378e-011
609
root  5.30238 40.4268 28.0985 -177.701 29.5203 173.14
RightUpLeg  -8.4243 -9.42049 -12.1085
RightLeg  9.84445 -15.5285 -2.67402
RightFoot  -1.54871 -0.82364 9.4702
RightToes  1.218e-010 1.26228e-014 -6.01869e-014
Spine  -3.86145 -0.849536 4.22187
Spine1  2.45733 -1.11281 0.603629
HEad  -8.11704 -28.6376 0.349132
LeftShoulder1  1.04719 -0.0432016 -25.3475
LeftArm  45.8716 -8.88123 -49.198
LeftForeArm  15.0107 -23.8059 -4.30518
LeftHand  -0.0677077 3.87242 3.81629
RightShoulder  0.979868 -0.434531 28.0395
RightArm  -44.0006 -45.8044 34.4546
RightForeArm  56.2915 76.1729 117.392
RightHand  -0.120305 -21.123 0.0202935
LeftUpLeg  -3.59661 -0.616708 1.69656
LeftLeg  11.2388 -25.5138 -4.46306
LeftFoot  -1.64104 0.864623 -10.0557
LeftToes  5.08156e-010 -6.90346e-011 -6.33378e-011
610
root  5.17882 40.4242 27.9438 -177.908 25.6625 174.207
RightUpLeg  -6.01963 -8.86828 -11.7233
RightLeg  9.38999 -19.5652 -3.3294
RightFoot  -1.20983 -0.952217 10.6197
RightToes  1.218e-010 1.26228e-014 -6.01869e-014
Spine  -5.60364 -2.14575 1.87396
Spine1  2.99099 -2.86219 3.13205
HEad  -3.29503 -29.2242 0.56111
LeftShoulder1  1.02237 -0.00760893 -24.9155
LeftArm  44.5724 -9.03999 -50.7708
LeftForeArm  15.8229 -22.0608 -4.70356
LeftHand  -0.0566504 4.18548 3.57236
RightShoulder  0.727869 -1.24247 29.1311
RightArm  -47.0843 -45.4015 35.465
RightForeArm  55.2704 76.2632 116.596
RightHand  0.105403 -22.6564 -1.48835
LeftUpLeg  -2.99224 -0.338882 2.57007
LeftLeg  11.3165 -29.0071 -5.13462
LeftFoot  -1.89805 0.730565 -8.6967
LeftToes  5.08156e-010 -6.90346e-011 -6.33378e-011
611
root  4.9252 40.3842 27.7916 -178.432 23.0323 174.914
RightUpLeg  -4.58306 -9.10728 -11.8796
RightLeg  10.1921 -21.5182 -3.78735
RightFoot  -1.09753 -1.05778 11.6795
RightToes  1.218e-010 1.26228e-014 -6.01869e-014
Spine  -6.96151 -3.38735 -0.416116
Spine1  3.71799 -4.34594 4.85634
HEad  1.15153 -29.8056 1.64624
LeftShoulder1  1.25708 -0.868438 -24.1437
LeftArm  42.5781 -7.88119 -51.1092
LeftForeArm  16.3759 -22.2952 -4.53337
LeftHand  -0.0629218 3.89963 3.4804
RightShoulder  0.555377 -1.75483 29.5724
RightArm  -46.9909 -43.217 35.1538
RightForeArm  48.4347 76.8363 110.704
RightHand  0.459771 -21.9985 -3.89145
LeftUpLeg  -2.12588 -0.275655 2.7341
LeftLeg  11.2459 -30.4697 -5.32257
LeftFoot  -2.47875 0.540876 -6.7835
LeftToes  5.08156e-010 -6.90346e-011 -6.33378e-011
612
root  4.52065 40.3051 27.6959 -178.861 22.6795 175.819
RightUpLeg  -4.22725 -10.103 -12.2092
RightLeg  11.3357 -20.2489 -3.4329
RightFoot  -1.01754 -1.11879 12.2639
RightToes  1.218e-010 1.26228e-014 -6.01869e-014
Spine  -7.1473 -3.73161 -1.64602
Spine1  3.61822 -4.79638 5.81068
HEad  4.71158 -30.4794 2.99571
LeftShoulder1  1.38386 -1.40095 -23.3953
LeftArm  43.2243 -7.19912 -51.258
LeftForeArm  15.1086 -23.2641 -4.28376
LeftHand  -0.0737342 3.62383 3.7528
RightShoulder  0.569227 -1.70789 29.3924
RightArm  -45.576 -41.3072 33.961
RightForeArm  39.285 77.3942 101.966
RightHand  0.166038 -24.1608 -1.77505
LeftUpLeg  -1.33098 -0.708634 2.8163
LeftLeg  11.4971 -29.9104 -5.20382
LeftFoot  -4.02394 0.362485 -5.28976
LeftToes  5.08156e-010 -6.90346e-011 -6.33378e-011
613
root  4.00855 40.197 27.6783 -179.045 23.5604 176.931
RightUpLeg  -4.68461 -11.7055 -12.2873
RightLeg  12.4815 -17.54 -2.86131
RightFoot  -0.741704 -1.15378 12.3386
RightToes  1.218e-010 1.26228e-014 -6.01869e-014
Spine  -7.23368 -3.53626 -1.73222
Spine1  3.78689 -4.57134 5.56278
HEad  6.50789 -31.2406 4.8684
LeftShoulder1  1.45672 -1.83821 -22.2515
LeftArm  41.341 -6.64214 -51.582
LeftForeArm  17.5751 -24.2446 -4.26282
LeftHand  -0.0709457 3.50997 3.36931
RightShoulder  0.508269 -1.89804 29.837
RightArm  -45.0694 -39.0732 32.6372
RightForeArm  30.5233 77.6345 93.5573
RightHand  0.277003 -25.0956 -2.34128
LeftUpLeg  -0.965201 -1.14596 3.00607
LeftLeg  12.2201 -28.4001 -5.20917
LeftFoot  -5.95565 0.207763 -3.65703
LeftToes  5.08156e-010 -6.90346e-011 -6.33378e-011
